<svg width="33" height="35" viewBox="0 0 33 35" fill="none" xmlns="http://www.w3.org/2000/svg">
<path d="M32.5416 6.5625C32.5416 5.35438 31.5622 4.375 30.3541 4.375H24.8474C23.926 1.76073 21.4593 0.00888672 18.6874 0H14.3124C11.5405 0.00888672 9.07393 1.76073 8.15244 4.375H2.64575C1.43764 4.375 0.458252 5.35438 0.458252 6.5625C0.458252 7.77062 1.43764 8.75 2.64575 8.75H3.37494V26.9792C3.37494 31.4089 6.966 35 11.3958 35H21.6041C26.0339 35 29.6249 31.4089 29.6249 26.9792V8.75H30.3541C31.5622 8.75 32.5416 7.77062 32.5416 6.5625ZM25.2499 26.9792C25.2499 28.9927 23.6177 30.625 21.6041 30.625H11.3958C9.38223 30.625 7.74994 28.9927 7.74994 26.9792V8.75H25.2499V26.9792Z" fill="#A6306A"/>
<path d="M12.8541 26.25C14.0622 26.25 15.0416 25.2706 15.0416 24.0625V15.3125C15.0416 14.1044 14.0622 13.125 12.8541 13.125C11.646 13.125 10.6666 14.1044 10.6666 15.3125V24.0625C10.6666 25.2706 11.646 26.25 12.8541 26.25Z" fill="#A6306A"/>
<path d="M20.1458 26.25C21.3539 26.25 22.3333 25.2706 22.3333 24.0625V15.3125C22.3333 14.1044 21.3539 13.125 20.1458 13.125C18.9376 13.125 17.9583 14.1044 17.9583 15.3125V24.0625C17.9583 25.2706 18.9376 26.25 20.1458 26.25Z" fill="#A6306A"/>
</svg>
